<?xml version="1.0" encoding="utf-8"?>
<!-- Generator: Adobe Illustrator 21.1.0, SVG Export Plug-In . SVG Version: 6.00 Build 0)  -->
<svg version="1.1" id="Layer_1" xmlns="http://www.w3.org/2000/svg" xmlns:xlink="http://www.w3.org/1999/xlink" x="0px" y="0px"
	 width="60" height="60" viewBox="0 0 200 200" style="enable-background:new 0 0 200 200;" xml:space="preserve">
<style type="text/css">
	.st0{fill:#6589C1;}
</style>
<g>
	<g>
		<path class="st0" d="M101.2,54.4C98,46.3,90.9,40.2,82.1,39.2c-8.9-1-16.1,3.8-16.8,13c-0.8,10.9,6.8,20.8,12.9,29
			c7.6,10.3,16.1,19.9,25.1,29c0.9,0.9,2.7,1.1,3.5,0c8.2-10.6,16.3-21.5,22.8-33.3c5.4-9.8,10.9-22.1,7.9-33.5
			c-2.5-9.2-11.2-16.3-21-13.8c-11.7,3-16.3,15.1-19.3,25.5c-0.9,3.1,3.9,4.4,4.8,1.3c2.6-8.9,6.9-21.8,18.2-22.3
			c11.9-0.6,14.3,13.9,12.3,22.6c-4.3,18.4-17.8,35.3-29.2,49.9c1.2,0,2.4,0,3.5,0c-12.1-12.4-25-26-33.1-41.4
			c-3.2-6-6.9-18.6,2.9-21c8.2-2,16.9,3.8,19.8,11.3C97.5,58.7,102.3,57.4,101.2,54.4L101.2,54.4z"/>
	</g>
</g>
<g>
	<g>
		<path class="st0" d="M95.1,4.8c-12.1-0.5-24,3.8-33,11.9c-10,8.9-14.6,21.7-15.3,34.9C45,82.8,62.1,111.7,76.9,138
			c9.4,16.7,19.2,33.2,29.3,49.4c0.8,1.2,2.9,1.8,3.9,0.5c11.1-13.7,20.7-28.5,29.9-43.5c9.3-15,18.4-29.7,22.8-47.1
			c2.2-8.6,3.5-17.4,4.8-26.2c1.2-8.2,2-15.7-0.7-23.7c-4.5-13-12-26.1-22.9-34.6C129,1.2,110.2,2.3,92.3,4.3c-3.2,0.4-3.2,5.4,0,5
			c15-1.7,31.4-3.4,44.9,4.9c11.8,7.2,19.4,20.2,24.2,32.9c3.2,8.4,2.4,15.9,1.1,24.6c-1.1,7.9-2.4,15.8-4.3,23.5
			c-3.9,16-12,29.6-20.6,43.6c-9.7,15.7-19.5,31.3-31.1,45.7c1.3,0.2,2.6,0.3,3.9,0.5c-10.1-16.3-19.9-32.7-29.3-49.4
			c-9-16-18.3-32.2-24.1-49.6c-5.7-17-8.8-37.6-0.4-54.2C63.9,17.5,79.4,9.1,95.1,9.8C98.3,9.9,98.3,4.9,95.1,4.8L95.1,4.8z"/>
	</g>
</g>
<g>
	<g>
		<path class="st0" d="M101.1,150.5c-1,6.8-1.6,13.6-1.4,20.5c0.2,9.6,13.8,14,18.6,5c9.5-17.6,19.9-34.6,29.6-52
			c4.6-8.3,8.8-17.1,11.7-26.2c3-9.8,6-21.2-3.7-28.1c-7.1-5-20.9-8.6-26.5,0.3c-2.7,4.2-1.8,9.2-3.7,13.7c-1.3,2.9-3.7,5.4-5.7,7.7
			c-12.6,14.2-20.7,29.7-21.8,48.9c-0.4,7.3,8.9,12.8,15,8.6c5.7-3.8,9.6-9,13.7-14.3c4.2-5.4,8.4-10.9,12.2-16.6
			c7.3-10.8,10.2-25.9-1.6-35c-4.3-3.3-10-4.2-14.1,0c-3.4,3.4-4.3,10.8,0,14.1c2.3,1.8,2.9,2.5,1.8,5.3c-1.5,3.6-4.2,6.8-6.5,10
			c-2.3,3.2-4.7,6.4-7.1,9.6c-2.5,3.3-5.1,7.4-8.6,9.7c5,2.9,10,5.8,15,8.6c0.6-11,4.8-21.9,11.9-30.3c3.8-4.5,7.9-8.6,11.2-13.5
			c1.5-2.3,2.8-4.9,3.7-7.5c0.9-2.7,0.5-6.6,1.7-8.9c-1.2,1.2-2.4,2.4-3.6,3.6c0.3-0.1,0.5-0.3,0.8-0.4c-1.7,0.5-3.4,0.9-5,1.4
			c1.5-0.2,2.7,0.5,4.1,0.5c0.6,0.3,1.1,0.6,1.7,0.9c-1.2-4.4-1.9-5-2.1-2c-1.3,3.8-1.9,7.9-3.2,11.7c-2.7,7.7-6.7,14.9-10.7,22
			c-9.2,16-18.6,31.9-27.4,48.2c6.2,1.7,12.4,3.4,18.6,5c-0.1-5.1,0-10.2,0.7-15.2c0.8-5.3-1.3-10.7-7-12.3
			C108.7,142.2,101.9,145.1,101.1,150.5L101.1,150.5z"/>
	</g>
</g>
<g>
	<g>
		<path class="st0" d="M148,82.3c3.2-4.2,5-9,6.2-14.1c0.6-2.4,1.2-4.9,1.7-7.3c0.5-2.3,0.7-5.8,1.8-7.9c-2,1.5-4,3.1-6,4.6
			c0.3-0.1,0.6-0.1,0.9-0.2c-1.8,0-3.5,0-5.3,0c-1.5-0.2-0.8-3-0.5-0.1c0.1,1.4,0.7,2.7,0.7,4.2c0.1,3.3-0.8,6.1-2.5,8.9
			c-6.6,11.1,10.7,21.1,17.3,10.1c7-11.7,8.6-33.5-5.5-41.1c-3.8-2-8.8-2.4-12.7-0.2c-4.2,2.5-5.2,7.3-6.3,11.7
			c-1.7,7.2-2.4,15.2-7,21.2c-3.3,4.3-0.7,11.2,3.6,13.7C139.4,88.9,144.7,86.7,148,82.3L148,82.3z"/>
	</g>
</g>
<g>
	<g>
		<path class="st0" d="M154.3,66.7c1.9-5,2.7-10.6,2.2-15.9c-0.5-5.2-4.3-10.3-10-10c-5,0.2-10.5,4.4-10,10c0.1,1,0.2,1.9,0.2,2.9
			c0,0.6,0,1.3-0.1,1.9c-0.1,1.1-0.1,1.3,0,0.6c0.2-1-0.4,1.7-0.5,2c-0.3,1.1-0.7,2.2-1.1,3.2c-1.9,4.9,2.1,11.2,7,12.3
			C147.7,75,152.3,71.9,154.3,66.7L154.3,66.7z"/>
	</g>
</g>
<g>
	<g>
		<path class="st0" d="M156.5,49.8c0.7-5.8,0.5-11.5-2.2-16.9c-1.1-2.2-2.7-4.2-4.2-6.1c-0.7-0.8-2.9-2.7-3.2-3.6
			c-3.2,4.2-6.4,8.4-9.6,12.7c-1.6,0-1.3-0.7-0.5,0.5c0.6,1,2.1,2,2.9,2.8c1.6,1.7,2.9,3.6,4.2,5.6c6.7,10.9,24.1,0.9,17.3-10.1
			c-5.1-8.3-13.2-18.6-23.8-18.9c-6.3-0.2-11.6,6.6-9.6,12.7c1.6,5,4.9,7.8,7.9,11.8c2.1,2.8,1.4,6,1,9.4c-0.6,5.4,5,10,10,10
			C152.4,59.8,155.8,55.2,156.5,49.8L156.5,49.8z"/>
	</g>
</g>
<g>
	<g>
		<path class="st0" d="M137.4,15.6c-3.4-2.5-5.5-4.6-10-5.1c-4.1-0.4-7.7,0.7-11.5,2.1c-6.8,2.5-13.6,2.8-20.3,5.9
			c2.6-0.3,5.1-0.7,7.7-1c-0.3-0.1-0.6-0.1-0.9-0.2c2,1.5,4,3.1,6,4.6c-0.1-0.2-0.2-0.4-0.3-0.6c0.5,1.7,0.9,3.4,1.4,5
			c0,1.3,0.5-0.6,1.2-1.1c1.6-1,4.6-0.6,6.3-0.4c4.6,0.5,8.9,2.5,12.3,5.7c9.4,8.8,23.6-5.3,14.1-14.1
			c-13.1-12.2-41.7-19.1-51.5,0.9c-2.2,4.5-3.6,9.9-0.9,14.5c3.6,6.3,9.9,5.7,15.8,3.6c3.7-1.3,7.8-1.2,11.6-2.4
			c1.5-0.5,5.5-1.3,6.6-2.4c1.2-0.2,1-0.4-0.6-0.7c-1.5-0.7-1.7-0.7-0.8,0c0.8,1.2,2.7,2.1,3.8,2.9c4.4,3.2,11.1,0.7,13.7-3.6
			C143.9,24.3,141.8,18.8,137.4,15.6L137.4,15.6z"/>
	</g>
</g>
<g>
	<g>
		<path class="st0" d="M104.5,9c-2.2-0.1-4.5-0.3-6.7-0.4c0.9,6.5,1.8,13.1,2.7,19.6c1-0.3,1.9-0.6,2.9-0.9
			c10.6-3.2,8.9-19.7-2.7-19.6c-8.9,0.1-18.9,0.7-27.3,4c-8.1,3.2-17.6,10.9-14.7,20.8c3.1,10.5,18,8.9,26.5,9
			c8.5,0.2,19.2,1.2,25.6-5.6c8.8-9.4-5.3-23.6-14.1-14.1c0.3-0.3,1.3-0.5,1.5-0.5c-1,0.2-2.2,0.1-3.2,0.2c-2.9,0.1-5.8,0.1-8.7,0.1
			c-4.6-0.1-10.2,0.1-14.5-0.7c1.5,0.9,2.9,1.7,4.4,2.6c-0.2-0.2-0.5-0.4-0.7-0.6c0.9,1.5,1.7,2.9,2.6,4.4c-0.1-0.3-0.1-0.6-0.2-1
			c0,1.8,0,3.5,0,5.3c-0.3,1.4-1.5,1.2,0.2,0.1c0.6-0.4,1.1-0.7,1.7-1c2-0.9,4.3-1.3,6.4-1.7c4.8-0.8,9.7-1.2,14.5-1.3
			c-0.9-6.5-1.8-13.1-2.7-19.6c-1,0.3-1.9,0.6-2.9,0.9c-11,3.3-8.6,19,2.7,19.6c2.2,0.1,4.5,0.3,6.7,0.4
			C117.4,29.7,117.4,9.7,104.5,9L104.5,9z"/>
	</g>
</g>
<g>
	<g>
		<path class="st0" d="M74.8,17.3C49.3,20.2,46.2,53.6,54,72.6c4.4,10.8,11.3,20,18.9,28.8c8,9.3,16.3,18.4,24.5,27.5
			c8.6,9.6,22.7-4.5,14.1-14.1c-11.6-13-24.9-25.6-34.3-40.4c-4.1-6.5-7.4-13.9-7.4-21.7c0-3.7,0.7-7.4,2.2-10.8
			c0.2-0.5,2.2-4.5,2.7-4.5c5.4-0.6,10-4.2,10-10C84.8,22.4,80.2,16.7,74.8,17.3L74.8,17.3z"/>
	</g>
</g>
<g>
	<g>
		<path class="st0" d="M50.5,72.4c2.4,9.7,4,20,7.4,29.4c1.8,4.9,5.2,8.1,8.9,11.6c4.2,3.9,8.4,7.9,12.6,11.8
			c9.4,8.8,23.5-5.3,14.1-14.1c-3.7-3.5-7.5-7-11.2-10.5c-2.4-2.3-5.2-4-6-7.2c-2.4-8.7-4.3-17.5-6.5-26.2
			C66.7,54.6,47.4,59.9,50.5,72.4L50.5,72.4z"/>
	</g>
</g>
<g>
	<g>
		<path class="st0" d="M76.5,119c0.9,9.4,6.9,15.5,11.7,23.2c1.9,3.1,3.7,6.1,4.7,9.6c1.4,4.6,2,9,4.3,13.3
			c5.2-4,10.5-8.1,15.7-12.1c-3-3-4.9-6.9-7.1-10.5c-2.4-4-4.9-8-7.3-12c-5.1-8.4-10-16.8-14.5-25.5c-6-11.4-23.3-1.3-17.3,10.1
			c4.8,9.2,10.1,18.2,15.5,27.1c5,8.3,9.6,18.1,16.5,24.9c8.3,8.2,20.8-2.1,15.7-12.1c-1.4-2.8-1.5-6.4-2.5-9.3
			c-1.2-3.7-2.8-7.3-4.7-10.7c-1.7-2.9-3.5-5.7-5.5-8.5c-1-1.4-2-2.7-2.9-4.1c-0.6-0.9-1.2-1.7-1.8-2.6c-0.8-1.6-1-1.9-0.5-0.8
			c-0.5-5.4-4.2-10-10-10C81.5,109,76,113.6,76.5,119L76.5,119z"/>
	</g>
</g>
<g>
	<g>
		<path class="st0" d="M96.2,36.6c-1.5,2.7-2.3,5.6-2.5,8.7c3.3-0.4,6.5-0.9,9.8-1.3c-2-5-7-9.2-11.3-12.2c-2.2-1.5-5.6-0.4-6.8,1.8
			c-1.5,2.5-0.4,5.3,1.8,6.8c1.4,1,2.7,2.2,4,3.4c0.6,0.6,1.3,1.3,1.9,1.9c-0.1-0.1,1.2,1.5,0.9,0.8c2,5.1,9.5,4.6,9.8-1.3
			c0.1-1.3,0.4-2.5,1.1-3.6C107.9,36,99.3,31,96.2,36.6L96.2,36.6z"/>
	</g>
</g>
</svg>
