<?xml version="1.0" encoding="utf-8"?>
<!-- Generator: Adobe Illustrator 21.1.0, SVG Export Plug-In . SVG Version: 6.00 Build 0)  -->
<svg version="1.1" id="Layer_1" xmlns="http://www.w3.org/2000/svg" xmlns:xlink="http://www.w3.org/1999/xlink" x="0px" y="0px"
	 viewBox="0 0 300 300" style="enable-background:new 0 0 300 300;" xml:space="preserve">
<style type="text/css">
	.st0{fill:#6589C1;}
</style>
<g>
	<g>
		<path class="st0" d="M122.8,13.7c-17.7-0.8-31.9,12.1-38.4,27.7c-7.9,19.2-6.4,41-5,61.2c1.5,22.1,4.3,44.1,10.3,65.4
			c5.9,20.8,14.4,40.8,23.1,60.5c9.7,22,19.1,44.4,33.9,63.6c0.9,1.1,2.8,1.9,3.9,0.5c31.4-38.5,52.5-84.9,60.9-133.9
			c4.2-24.1,5.5-48.9,3.1-73.3c-2.2-22.5-8.8-45.5-27.5-59.9c-19.1-14.7-45-17.8-68-12.5c-3.1,0.7-1.8,5.5,1.3,4.8
			c20.1-4.6,42.5-2.4,60.1,9.1c20.3,13.3,27.2,37.1,29.2,60.1c4,45.7-4.1,92.5-22.1,134.7c-10.3,24.2-24,46.9-40.7,67.3
			c1.3,0.2,2.6,0.3,3.9,0.5c-11.7-15.3-20.1-32.6-27.9-50.1c-8.4-18.9-17-37.9-23.7-57.6c-6.8-19.6-11-39.8-13.3-60.4
			c-2.2-20.2-4.5-41.7-1.4-61.9c3-19.7,15.2-42.1,38.1-41.1C126,18.9,126,13.9,122.8,13.7L122.8,13.7z"/>
	</g>
</g>
<g>
	<g>
		<path class="st0" d="M146.9,67.9c-2.1-11.8-12.2-21.2-24.1-22.7c-13.7-1.7-24,8-24.6,21.5c-0.6,15.4,9.8,30.2,17.4,42.8
			c9,15,18.8,29.5,29,43.8c1.9,2.6,6.2,0.1,4.3-2.5c-7.6-10.7-15.1-21.5-22.1-32.6c-7.1-11.2-14.7-22.7-19.9-35
			C101.7,71,100.7,51,118.7,50c11.4-0.6,21.4,8.3,23.4,19.2C142.7,72.4,147.5,71,146.9,67.9L146.9,67.9z"/>
	</g>
</g>
<g>
	<g>
		<path class="st0" d="M148.9,153.6c11.7-14.8,23.7-29.3,35-44.4c8.6-11.6,17.1-25.6,16.3-40.6c-0.7-13-9.5-23.7-23.3-22.4
			c-15.1,1.5-26.5,16-32.8,28.6c-1.4,2.9,2.9,5.4,4.3,2.5c5.6-11.2,16.1-25.7,30-26.2c16-0.6,18.6,16.8,15.4,28.9
			c-3.4,12.9-11.9,23.7-20,34c-9.5,12-19,24.1-28.5,36.1C143.4,152.5,146.9,156.1,148.9,153.6L148.9,153.6z"/>
	</g>
</g>
<g>
	<g>
		<path class="st0" d="M148.3,76c0.3-3.9-0.2-7.8-1.4-11.5c-1-3.1-5.8-1.8-4.8,1.3c1.1,3.3,1.4,6.7,1.2,10.2
			C143.1,79.2,148.1,79.2,148.3,76L148.3,76z"/>
	</g>
</g>
<g>
	<g>
		<path class="st0" d="M134,213.3c8.3,4,17.2,1,22.3-6.5c4-5.9,7.4-15.7,2.5-22c-5.8-7.4-16.2-3.9-20,3.5
			c-3.5,6.9-0.9,16.6,5.6,20.8c7.3,4.7,16.6,1.7,21.3-5.2c4.9-7.2,4.1-17.6,0.6-25.2c-3.5-7.7-11.8-12.9-20.2-9.9
			c-8.4,3-11.6,12.9-12.6,21c-1,8.5,1.1,18.9,10.7,21.3c9.8,2.4,15-6.5,18-14.2c3.1-7.9,4-17.5-0.3-25.2c-5.1-8.9-15.7-8.9-22.2-1.6
			c-5.3,5.9-7.9,16.2-0.7,21.7c6.7,5.2,16.4,1.5,22.5-3c6.5-4.8,11.2-12.1,12-20.3c0.7-7.8-3.9-16.4-12.6-16.5
			c-8.9-0.1-18.6,10.9-11.2,19c6.7,7.3,18.9,0.2,23.7-5.7c2.8-3.4,5.2-8,4.2-12.5c-1-4.8-5.1-8.1-10.1-8.1c-5,0-9,3-12.8,5.9
			c-4.2,3.3-8.2,6.9-11.8,10.8c4.2,2.4,8.4,4.9,12.5,7.3c2.4-13.4,14.7-21.5,23.3-31c10.4-11.5,20.3-25.5,26.7-39.6
			c6.2-13.7,8.6-29.6,1.9-43.6c-6.6-13.7-20.7-19.6-34.2-24.5c-9.1-3.3-13,11.2-4,14.5c11.2,4.1,23.3,8.9,26.5,21.7
			c3.2,13-3.1,25.9-9.9,36.6c-7.3,11.7-15.4,22.4-25.3,32.1c-8.6,8.4-17.4,17.6-19.5,29.9c-1.2,6.8,7,13.2,12.5,7.3
			c3.1-3.3,11-12.7,15-12.2c-1.3-0.3-2.5-0.7-3.8-1c-0.6-0.7-1.1-1.3-1.7-2c0-1.3,0-2.7,0-4c-0.3,1.8-1.1,3-2.4,4.2
			c-0.6,0.5-1.2,0.8-1.8,1.2c-0.3,0.2-0.7,0.4-1.1,0.5c-2.5,0.6-1.2,1.8,4.2,3.7c0,1.3,0,2.7,0,4c-0.2,1-1.9,0.2-2.1,0.2
			c-3.1,0.2,0-1.2-1.3,0.7c-0.9,1.4-1,3.6-1.9,5.1c-1.1,1.9-2.6,3.4-4.4,4.7c-0.8,0.5-1.6,1.1-2.5,1.4c-1.9,0.8-3.4-0.2-1.4,2.3
			c1.9,2.3,1,1.3,2,0c0.3-0.4,0.7-0.7,1-1.1c-2.1-1-2.8-0.9-2.1,0.3c-0.2,0.7,0.6,2.2,0.7,3.2c0.1,1.2,0,2.4-0.2,3.6
			c-0.5,2.8-1.5,5.7-2.8,8.2c-0.1,0.2-1.2,1.9-1.2,2.1c2.5,1,3.4,0.9,2.8-0.4c-0.2-0.5-0.3-1-0.3-1.6c-0.3-2.7,0.5-6,1.4-8.6
			c0.4-1,0.7-1.9,1.3-2.8c0.6-1,1.1-0.5,0.2-0.7c3.2,0.5,3.9,9.6,2.8,11.9c-0.5,1-0.6,1.3-1.6,1.7c0.6-0.2,0.8,0.7,0.5,0.1
			c-0.9-2.3,0.1-1.7-3.4-3c-5.3-2-2.1-1.7-3.5,0.4c-0.6,0.9-0.8,2.3-1.3,3.3c-0.3,0.5-1.9,3.6-3,3.1
			C132.9,196.1,125.3,209.1,134,213.3L134,213.3z"/>
	</g>
</g>
<g>
	<g>
		<path class="st0" d="M158.8,28c-13.4-3.3-26.9-6.6-40.3-9.9c1.1,4.2,2.2,8.4,3.3,12.5c4.5-4.3,11.7,1.9,14.3,5.6
			c4,5.7,7.6,16.2,6.4,23.1c4.9,0.7,9.8,1.3,14.7,2c0.3-2.8,4.3-4.7,6.4-5.9c4-2.1,8.1-3.7,11.8-6.4c5.2-3.8,4.7-11.5-1.8-13.7
			c-6.3-2.1-10.3-9.8-15.4-13.9c-6.9-5.5-15.4-8.3-24.3-8c-9.6,0.3-9.7,14.7,0,15c9.9,0.3,19.5,1.1,28.8,4.9
			c8.8,3.7,16.8,9.1,24.6,14.3c8.1,5.4,15.6-7.6,7.6-13c-9-6-18.1-11.8-28.1-15.8c-10.5-4.2-21.6-5.2-32.8-5.5c0,5,0,10,0,15
			c7.8-0.3,13.6,2.8,18.8,8.4c5,5.4,9.6,10.4,16.9,12.9c-0.6-4.6-1.2-9.1-1.8-13.7c-5.3,4-11.9,5.7-17.1,9.8
			c-5.1,4-7.9,8.9-8.5,15.3c-0.8,8.3,13.2,10.3,14.7,2c2.4-13.2-2.7-29.9-11.8-39.7c-8.7-9.4-23.9-13.1-34-3.6
			c-4.1,3.8-2.1,11.2,3.3,12.5c13.4,3.3,26.9,6.6,40.3,9.9C164.2,44.8,168.2,30.3,158.8,28L158.8,28z"/>
	</g>
</g>
<g>
	<g>
		<path class="st0" d="M151.1,50.1c-4-12.4-15.5-18.1-27.6-20.3c-6.5-1.2-13.2-1.9-19.4,0.7c-5.6,2.3-9.8,6.6-13.7,11.1
			c4.2,1.1,8.4,2.2,12.5,3.3c-0.2-0.9,5.4-6.4,6.4-7.4c2.5-2.6,5.1-4.6,8.7-5.6c9.3-2.5,5.4-17-4-14.5c-7.1,1.9-12.7,6.3-17.4,11.7
			c-5.1,5.8-9.9,11.6-8.2,19.7c1.1,5.3,8.9,7.5,12.5,3.3c2.2-2.5,4.4-5.3,7.2-7.1c3.5-2.2,7.5-1.6,11.4-0.9
			c6.2,1.1,14.8,2.9,17.1,9.8C139.6,63.2,154.1,59.3,151.1,50.1L151.1,50.1z"/>
	</g>
</g>
<g>
	<g>
		<path class="st0" d="M129.3,34.9c-9.1-1.8-18.6-2.7-27.3,1.1c-8.1,3.5-13.8,10.4-15.2,19.2c-3,18.3-0.6,38.1,5.5,55.5
			c6,17.1,15.1,32.9,22.1,49.6c6.4,15.3,8.4,33.8,20.7,45.9c6.9,6.8,17.5-3.8,10.6-10.6c-9.8-9.6-11.4-25.7-16.3-37.9
			c-5.8-14.2-13.1-27.7-19.1-41.8c-6.1-14.4-9.5-28.8-9.4-44.4c0-6.1-1.2-15.5,4-19.8c5.6-4.7,13.9-3.6,20.5-2.2
			C134.7,51.3,138.8,36.8,129.3,34.9L129.3,34.9z"/>
	</g>
</g>
<g>
	<g>
		<path class="st0" d="M91.1,92.7c17.4,22.8,32.3,47.3,44.5,73.3c4.1,8.7,17,1.1,13-7.6c-12.2-25.9-27.1-50.5-44.5-73.3
			c-2.5-3.2-6.4-4.9-10.3-2.7C90.6,84.3,88.7,89.5,91.1,92.7L91.1,92.7z"/>
	</g>
</g>
<g>
	<g>
		<path class="st0" d="M150.5,173.8c-8.8-13.9-17.3-28.1-27-41.4c-2.4-3.3-6.5-4.8-10.3-2.7c-3.2,1.8-5.1,7-2.7,10.3
			c9.7,13.3,18.2,27.5,27,41.4C142.7,189.5,155.7,181.9,150.5,173.8L150.5,173.8z"/>
	</g>
</g>
<g>
	<g>
		<path class="st0" d="M150,47.6c3.8-0.6,7.5-0.9,11.3-1c4.1-0.1,7.5-3.4,7.5-7.5c0-4-3.4-7.6-7.5-7.5c-5.1,0.1-10.3,0.7-15.3,1.6
			c-4,0.7-6.2,5.6-5.2,9.2C141.9,46.6,146,48.3,150,47.6L150,47.6z"/>
	</g>
</g>
<g>
	<g>
		<path class="st0" d="M95.6,39.8c-6.2,2.7-9,9-10.6,15.2c-1.8,7.2-3,14.6-3.8,22c-1.5,14.7-0.4,29.6,4,43.7
			c2.9,9.2,17.3,5.3,14.5-4c-3.5-11.2-4.6-22.6-3.9-34.2c0.3-5.5,1-10.9,2.1-16.3c0.8-4.1,1-11.6,5.3-13.5c3.7-1.7,4.5-7,2.7-10.3
			C103.7,38.6,99.3,38.1,95.6,39.8L95.6,39.8z"/>
	</g>
</g>
<g>
	<g>
		<path class="st0" d="M95.9,32.9c-2.8,1.3-4.8,3.5-6.4,6.1c-0.6,1.1-1.3,2.1-2,3.1c-0.4,0.5-0.8,1.1-1.2,1.6c0.7-0.9-0.8,1-0.8,1
			c-2.4,3.1-3.2,7.6,0,10.6c2.7,2.5,8,3.3,10.6,0c1.8-2.3,3.6-4.5,5.2-7c0.5-0.8,1-1.7,1.6-2.6c-0.4,0.6-0.2,0.7,0,0.2
			c-0.7,0.5-0.8,0.6-0.3,0.3c0.3-0.1,0.5-0.3,0.8-0.4c3.6-1.7,4.7-7.1,2.7-10.3C103.8,31.9,99.7,31.1,95.9,32.9L95.9,32.9z"/>
	</g>
</g>
<g>
	<g>
		<path class="st0" d="M90.3,130.3c4.1,7.4,8.1,14.9,11.8,22.5c3.5,7,7.8,14.4,10.2,21.9c0-1.3,0-2.7,0-4c0,0.2-0.1,0.4-0.1,0.6
			c1.1-1.5,2.3-3,3.4-4.5c-0.2,0.1-0.4,0.2-0.6,0.3c1.9-0.3,3.9-0.5,5.8-0.8c-6.8-1.1-11.4-11.4-13.8-16.8
			c-3.9-8.6-6.8-17.8-9.7-26.7c-3-9.1-17.5-5.2-14.5,4c3.7,11.2,7.4,22.6,12.6,33.2c4.2,8.5,11.5,18.7,21.4,20.8
			c5.7,1.2,10.8-3.4,10.1-9.2c-0.6-5.1-4.4-10.8-6.5-15.5c-5.3-11.4-11.1-22.6-17.1-33.5C98.6,114.3,85.6,121.9,90.3,130.3
			L90.3,130.3z"/>
	</g>
</g>
<g>
	<g>
		<path class="st0" d="M130.2,200.1c1.5-11.1-0.3-21.7-6.3-31.2c-4.6-7.4-15.4-2.5-13.7,5.8c2.8,14,11.6,25.6,16.1,39
			c3.7-2.8,7.3-5.6,11-8.5c-5.2-3.6-10.8-6.9-15.4-11.2c-4.2-4-6.5-9.1-8.7-14.4c-4.7-11.7-9.5-23.6-9.1-36.4c0.3-9.7-14.7-9.6-15,0
			c-0.4,15.3,5.1,29.6,10.9,43.4c2.7,6.4,5.7,12.4,10.6,17.3c5.6,5.5,12.6,9.7,19,14.1c5.3,3.7,13-2.4,11-8.5
			c-4.5-13.4-13.3-25.1-16.1-39c-4.6,1.9-9.1,3.9-13.7,5.8c3.7,5.9,5.7,12.7,4.8,19.7c-0.5,4,1,8,5.2,9.2
			C124.5,206.3,129.7,204.1,130.2,200.1L130.2,200.1z"/>
	</g>
</g>
<g>
	<g>
		<path class="st0" d="M165.9,176c2-10,9.1-16.8,16-23.7c3.4-3.4,6.7-6.9,9.9-10.5c3.2-3.7,6.5-8.1,10.9-10.5
			c-1.3,0.3-2.5,0.7-3.8,1c0.5,0,1,0,1.5,0.1c-1.8-0.7-3.5-1.5-5.3-2.2c-0.7-1.5-0.9-1.6-0.6-0.3c0.2,0.8,0.3,1.7,0.4,2.6
			c0.2,1.5,0.2,3.1,0.2,4.6c0,3.3-0.3,6.7-0.8,10c-1,6.4-2.8,12.6-4.4,18.9c-1.6,6.2-2.7,12.5-4.2,18.7c-0.7,2.9-1.5,5.9-2.5,8.7
			c-0.6,1.6-2.5,7.1-3.5,7.6c1.9-0.3,3.9-0.5,5.8-0.8c-0.3-0.1-0.5-0.1-0.8-0.2c1.7,1.7,3.5,3.5,5.2,5.2c-1.6-4.1,0.2-10.3,1.1-14.5
			c1.2-5.8,2.7-11.6,4.3-17.3c3.2-11.2,6.7-22.2,9.2-33.6c1.9-8.6-8.8-12.6-13.7-5.8c-8.6,11.8-14.1,25.4-18.3,39.2
			c-2.2,7.2-4,14.4-5.9,21.6c-0.9,3.6-1.9,7.3-2.9,10.9c-0.7,2.5-1.6,9.1-3.4,11c4.3,1.8,8.5,3.5,12.8,5.3
			c1.9-25.2,6.6-50,13.8-74.2c2.8-9.3-11.7-13.2-14.5-4c-7.6,25.5-12.3,51.7-14.3,78.2c-0.5,6.6,8.5,9.7,12.8,5.3
			c5.1-5.3,6.4-14.4,8.3-21.2c2.1-7.9,4.1-15.8,6.3-23.6c4.1-14.6,9.3-28.6,18.3-40.9c-4.6-1.9-9.1-3.9-13.7-5.8
			c-4,18.4-11,36-14.2,54.6c-1.2,7-4.2,20.9,4.9,24c8.9,3,13.4-8.4,16-14.7c3.4-8.4,4.7-17.5,6.8-26.3c2.1-9,4.7-17.9,5.9-27.1
			c1-7.4,2.4-19.7-2.9-25.9c-7-8.1-16.5,0.9-21.6,6.4c-6.5,7.1-13.2,14-19.8,21c-6.4,6.9-11.9,14.8-13.8,24.1
			C149.6,181.4,164,185.5,165.9,176L165.9,176z"/>
	</g>
</g>
<g>
	<g>
		<path class="st0" d="M192.9,148.1c0.7,9,0.3,17.9-1.4,26.8c-1.9,9.4,12.6,13.5,14.5,4c2-10.2,2.8-20.5,2-30.8
			C207.2,138.6,192.2,138.5,192.9,148.1L192.9,148.1z"/>
	</g>
</g>
<g>
	<g>
		<path class="st0" d="M198.2,140.2c5.4-6.8,7-15.2,9.3-23.3c1.1-3.9,2.2-7.8,2.9-11.7c0.4-2.5,0.8-5,0.9-7.5
			c0.1-1.6-0.5-4.8,0.1-6.3c-4.7-1.3-9.3-2.5-14-3.8c0.1,14.6-0.2,29.2-1,43.8c-0.5,9.6,14.5,9.6,15,0c0.7-14.6,1.1-29.2,1-43.8
			c0-6.9-10.9-11-14-3.8c-3.2,7.5-2,16.2-4.1,24.2c-1,3.9-2.2,7.7-3.3,11.6c-0.9,3.2-1.5,7.4-3.6,10.1c-2.5,3.2-3.1,7.5,0,10.6
			C190.2,142.8,195.7,143.3,198.2,140.2L198.2,140.2z"/>
	</g>
</g>
<g>
	<g>
		<path class="st0" d="M160.9,210c-7.5,22.5-14.3,45.3-20.4,68.2c-2.1,8.1,9.5,13.4,13.7,5.8c3.3-6,7.8-11.1,11.2-17
			c3.7-6.3,6.8-13,10.2-19.5c7-13.6,13.9-27.2,20.9-40.8c-4.6-1.9-9.1-3.9-13.7-5.8c-5.4,13.4-11.1,26.7-17.1,39.9
			c-1.7,3.7-1,8,2.7,10.3c3.2,1.9,8.6,1,10.3-2.7c6.5-14.4,12.7-28.8,18.6-43.5c3.2-7.9-9.9-13.3-13.7-5.8
			c-6.9,13.6-13.9,27.2-20.9,40.8c-3.3,6.5-6.5,13.2-10.2,19.5c-3.4,5.9-8,11-11.2,17c4.6,1.9,9.1,3.9,13.7,5.8
			c6.1-23,12.9-45.7,20.4-68.2C178.4,204.8,163.9,200.9,160.9,210L160.9,210z"/>
	</g>
</g>
<g>
	<g>
		<path class="st0" d="M114.2,182.9c-5.8,0.6-10.7,4.3-10.9,10.6c-0.3,6,3.8,12.1,6.4,17.2c2.7,5.3,5.6,10.6,8.6,15.7
			c3,5,5.8,9.7,10.7,13c4.8,3.3,11.2-1.1,11.3-6.5c0.1-6.1,0.1-12.2,0.2-18.2c-4.7,1.3-9.3,2.5-14,3.8c2.9,5,6,9.8,9.4,14.5
			c4.5,6.3,13.2,3.7,14-3.8c0.5-4.3,0.5-8.5,0-12.8c-4.7,1.3-9.3,2.5-14,3.8c3.1,5.3,6.2,10.6,9.3,15.8c3.8,6.4,13.9,3.7,14-3.8
			c0-7.4-0.6-14.6-1.7-21.9c-4.6,1.9-9.1,3.9-13.7,5.8c2,4,4,8.1,5.9,12.1c3.4,7,13.8,3.2,14-3.8c0.1-6.6,0.3-13.2,0.4-19.8
			c-4.3,1.8-8.5,3.5-12.8,5.3c1.1,1.1,2.1,2.2,3.2,3.2c6.8,6.9,17.4-3.7,10.6-10.6c-1.1-1.1-2.1-2.2-3.2-3.2
			c-4.7-4.7-12.7-1.1-12.8,5.3c-0.1,6.6-0.3,13.2-0.4,19.8c4.7-1.3,9.3-2.5,14-3.8c-2-4-4-8.1-5.9-12.1c-1.6-3.4-6.2-4.4-9.4-3.1
			c-3.7,1.6-4.9,5.1-4.3,8.8c0.9,5.9,1.2,11.9,1.2,18c4.7-1.3,9.3-2.5,14-3.8c-3.1-5.3-6.2-10.6-9.3-15.8c-3.5-6-14.8-3.9-14,3.8
			c0.4,4.3,0.4,8.5,0,12.8c4.7-1.3,9.3-2.5,14-3.8c-3.4-4.7-6.5-9.5-9.4-14.5c-3.8-6.4-13.9-3.6-14,3.8c-0.1,6.1-0.1,12.2-0.2,18.2
			c3.8-2.2,7.5-4.3,11.3-6.5c-2-1.3-3.1-4.1-4.3-6c-1.8-3-3.5-6-5.2-9c-1.5-2.8-3-5.5-4.4-8.3c-0.9-1.7-1.7-3.4-2.5-5.1
			c-0.3-0.6-0.5-1.1-0.8-1.7c-0.6-2.5-1.4-2.3-2.6,0.6c-1.3,0.3-2.5,0.7-3.8,1c0.4,0,0.8-0.1,1.2-0.1c4-0.4,7.5-3.2,7.5-7.5
			C121.7,186.7,118.3,182.5,114.2,182.9L114.2,182.9z"/>
	</g>
</g>
<g>
	<g>
		<path class="st0" d="M109.3,219.5c9.4,20.7,18,42.1,30.7,61.1c3.9,5.8,14.3,4.1,14-3.8c-0.6-15.4,0.3-30.7,3.2-45.8
			c1.7-9.4-11.7-13.4-14.5-4c-2.1,7.2-4.3,14.3-6.9,21.3c3.7-1.5,7.3-3,11-4.5c-2.5-1.7-3.3-4.3-3.3-7.1c0.1-9.7-14.9-9.7-15,0
			c-0.1,8.4,3.9,15.3,10.7,20.1c4.3,3,9.5-0.3,11-4.5c2.6-7,4.8-14.2,6.9-21.3c-4.8-1.3-9.6-2.7-14.5-4c-3.1,16.5-4.4,33.1-3.7,49.8
			c4.7-1.3,9.3-2.5,14-3.8c-12.7-19-21.3-40.4-30.7-61.1c-1.7-3.7-7-4.5-10.3-2.7C108.2,211.5,107.6,215.9,109.3,219.5L109.3,219.5z
			"/>
	</g>
</g>
<g>
	<g>
		<path class="st0" d="M127.8,48.4c11.3,6.8,14.2,21.1,17.9,32.9c0.4,1.2,2,1.1,2.4,0c5.6-14.6,17.6-30.6,32.6-36.2
			c1.5-0.6,0.8-3-0.7-2.4c-15.9,5.9-28.4,22.5-34.3,38c0.8,0,1.6,0,2.4,0c-3.9-12.5-7.1-27.1-19-34.4
			C127.7,45.4,126.5,47.5,127.8,48.4L127.8,48.4z"/>
	</g>
</g>
<g>
	<g>
		<path class="st0" d="M134.7,54.4c2.2,1,3.4,4.4,4.4,6.4c1.5,3.2,2.4,6.2,2.9,9.7c0.6,4.7,2.4,9.1,3.4,13.8c0.2,1.2,2.2,1.2,2.4,0
			c1.9-10.2,5.7-19.7,11.4-28.4c0.9-1.4-1.3-2.6-2.2-1.3c-5.7,8.9-9.6,18.6-11.6,29c0.8,0,1.6,0,2.4,0c-0.7-3.6-2.1-7-2.9-10.5
			c-0.7-2.8-0.6-5.7-1.5-8.5c-1.2-3.9-3.5-10.6-7.4-12.3C134.5,51.6,133.2,53.8,134.7,54.4L134.7,54.4z"/>
	</g>
</g>
<g>
	<g>
		<path class="st0" d="M113.2,17.1c4-1.6,8.8-1.5,13.1-1.5c1.6,0,1.6-2.5,0-2.5c-4.4,0-9.6-0.1-13.7,1.6
			C111,15.3,111.7,17.7,113.2,17.1L113.2,17.1z"/>
	</g>
</g>
</svg>
